<?xml version="1.0" encoding="UTF-8" standalone="no"?>
<!DOCTYPE svg PUBLIC "-//W3C//DTD SVG 1.1//EN"
 "http://www.w3.org/Graphics/SVG/1.1/DTD/svg11.dtd">
<!-- Generated by graphviz version 2.43.0 (0)
 -->
<!-- Title: ME_Engineering_Assistant_Architecture Pages: 1 -->
<svg width="557pt" height="502pt"
 viewBox="0.00 0.00 556.50 502.00" xmlns="http://www.w3.org/2000/svg" xmlns:xlink="http://www.w3.org/1999/xlink">
<g id="graph0" class="graph" transform="scale(1 1) rotate(0) translate(4 498)">
<title>ME_Engineering_Assistant_Architecture</title>
<polygon fill="white" stroke="transparent" points="-4,4 -4,-498 552.5,-498 552.5,4 -4,4"/>
<!-- User -->
<g id="node1" class="node">
<title>User</title>
<polygon fill="#d0e6ff" stroke="black" points="316.5,-494 197.5,-494 197.5,-458 316.5,-458 316.5,-494"/>
<text text-anchor="middle" x="257" y="-472.3" font-family="Times,serif" font-size="14.00">User Question</text>
</g>
<!-- Router -->
<g id="node2" class="node">
<title>Router</title>
<polygon fill="#ffeccc" stroke="black" points="306.5,-421 207.5,-421 207.5,-383 306.5,-383 306.5,-421"/>
<text text-anchor="middle" x="257" y="-405.8" font-family="Times,serif" font-size="14.00">Router</text>
<text text-anchor="middle" x="257" y="-390.8" font-family="Times,serif" font-size="14.00">(ECU Type)</text>
</g>
<!-- User&#45;&gt;Router -->
<g id="edge1" class="edge">
<title>User&#45;&gt;Router</title>
<path fill="none" stroke="black" d="M257,-457.94C257,-449.99 257,-440.31 257,-431.31"/>
<polygon fill="black" stroke="black" points="260.5,-431.2 257,-421.2 253.5,-431.2 260.5,-431.2"/>
</g>
<!-- Select -->
<g id="node3" class="node">
<title>Select</title>
<polygon fill="#fff9c4" stroke="black" points="257,-346 121.77,-328 257,-310 392.23,-328 257,-346"/>
<text text-anchor="middle" x="257" y="-324.3" font-family="Times,serif" font-size="14.00">Select Manual Set</text>
</g>
<!-- Router&#45;&gt;Select -->
<g id="edge2" class="edge">
<title>Router&#45;&gt;Select</title>
<path fill="none" stroke="black" d="M257,-382.83C257,-374.89 257,-365.41 257,-356.63"/>
<polygon fill="black" stroke="black" points="260.5,-356.42 257,-346.42 253.5,-356.42 260.5,-356.42"/>
</g>
<!-- ECU700 -->
<g id="node4" class="node">
<title>ECU700</title>
<polygon fill="#e8f5e9" stroke="black" points="146,-259 0,-259 0,-223 146,-223 146,-259"/>
<text text-anchor="middle" x="73" y="-237.3" font-family="Times,serif" font-size="14.00">ECU&#45;700 Manuals</text>
</g>
<!-- Select&#45;&gt;ECU700 -->
<g id="edge3" class="edge">
<title>Select&#45;&gt;ECU700</title>
<path fill="none" stroke="black" d="M228.25,-313.72C199.15,-300.27 153.68,-279.27 119.46,-263.46"/>
<polygon fill="black" stroke="black" points="120.67,-260.17 110.12,-259.15 117.73,-266.52 120.67,-260.17"/>
<text text-anchor="middle" x="209" y="-280.8" font-family="Times,serif" font-size="14.00">ECU&#45;700</text>
</g>
<!-- ECU800B -->
<g id="node5" class="node">
<title>ECU800B</title>
<polygon fill="#e8f5e9" stroke="black" points="349.5,-259 164.5,-259 164.5,-223 349.5,-223 349.5,-259"/>
<text text-anchor="middle" x="257" y="-237.3" font-family="Times,serif" font-size="14.00">ECU&#45;800 Base Manuals</text>
</g>
<!-- Select&#45;&gt;ECU800B -->
<g id="edge4" class="edge">
<title>Select&#45;&gt;ECU800B</title>
<path fill="none" stroke="black" d="M257,-309.8C257,-298.16 257,-282.55 257,-269.24"/>
<polygon fill="black" stroke="black" points="260.5,-269.18 257,-259.18 253.5,-269.18 260.5,-269.18"/>
<text text-anchor="middle" x="308.5" y="-280.8" font-family="Times,serif" font-size="14.00">ECU&#45;800 Base</text>
</g>
<!-- ECU800P -->
<g id="node6" class="node">
<title>ECU800P</title>
<polygon fill="#e8f5e9" stroke="black" points="548.5,-259 367.5,-259 367.5,-223 548.5,-223 548.5,-259"/>
<text text-anchor="middle" x="458" y="-237.3" font-family="Times,serif" font-size="14.00">ECU&#45;800 Plus Manuals</text>
</g>
<!-- Select&#45;&gt;ECU800P -->
<g id="edge5" class="edge">
<title>Select&#45;&gt;ECU800P</title>
<path fill="none" stroke="black" d="M298,-315.41C318.18,-309.25 342.69,-301.07 364,-292 382.94,-283.94 403.19,-273.42 420.03,-264.12"/>
<polygon fill="black" stroke="black" points="421.99,-267.04 429,-259.1 418.57,-260.93 421.99,-267.04"/>
<text text-anchor="middle" x="445" y="-280.8" font-family="Times,serif" font-size="14.00">ECU&#45;800 Plus</text>
</g>
<!-- Vector -->
<g id="node7" class="node">
<title>Vector</title>
<polygon fill="#fce4ec" stroke="black" points="354,-186 160,-186 160,-148 354,-148 354,-186"/>
<text text-anchor="middle" x="257" y="-170.8" font-family="Times,serif" font-size="14.00">Vector Retrieval</text>
<text text-anchor="middle" x="257" y="-155.8" font-family="Times,serif" font-size="14.00">(Embeddings + Chroma)</text>
</g>
<!-- ECU700&#45;&gt;Vector -->
<g id="edge6" class="edge">
<title>ECU700&#45;&gt;Vector</title>
<path fill="none" stroke="black" d="M116.61,-222.94C141.99,-213 174.24,-200.38 201.43,-189.75"/>
<polygon fill="black" stroke="black" points="202.78,-192.98 210.82,-186.07 200.23,-186.46 202.78,-192.98"/>
</g>
<!-- ECU800B&#45;&gt;Vector -->
<g id="edge7" class="edge">
<title>ECU800B&#45;&gt;Vector</title>
<path fill="none" stroke="black" d="M257,-222.94C257,-214.99 257,-205.31 257,-196.31"/>
<polygon fill="black" stroke="black" points="260.5,-196.2 257,-186.2 253.5,-196.2 260.5,-196.2"/>
</g>
<!-- ECU800P&#45;&gt;Vector -->
<g id="edge8" class="edge">
<title>ECU800P&#45;&gt;Vector</title>
<path fill="none" stroke="black" d="M410.37,-222.94C382.4,-212.92 346.79,-200.16 316.93,-189.47"/>
<polygon fill="black" stroke="black" points="318.05,-186.15 307.45,-186.07 315.69,-192.74 318.05,-186.15"/>
</g>
<!-- LLM -->
<g id="node8" class="node">
<title>LLM</title>
<polygon fill="#f3e5f5" stroke="black" points="328.5,-111 185.5,-111 185.5,-73 328.5,-73 328.5,-111"/>
<text text-anchor="middle" x="257" y="-95.8" font-family="Times,serif" font-size="14.00">Local LLM (Phi&#45;3)</text>
<text text-anchor="middle" x="257" y="-80.8" font-family="Times,serif" font-size="14.00">Generate Answer</text>
</g>
<!-- Vector&#45;&gt;LLM -->
<g id="edge9" class="edge">
<title>Vector&#45;&gt;LLM</title>
<path fill="none" stroke="black" d="M257,-147.96C257,-139.88 257,-130.18 257,-121.18"/>
<polygon fill="black" stroke="black" points="260.5,-121.09 257,-111.09 253.5,-121.09 260.5,-121.09"/>
</g>
<!-- Answer -->
<g id="node9" class="node">
<title>Answer</title>
<polygon fill="#d7ccc8" stroke="black" points="312,-36 202,-36 202,0 312,0 312,-36"/>
<text text-anchor="middle" x="257" y="-14.3" font-family="Times,serif" font-size="14.00">Final Answer</text>
</g>
<!-- LLM&#45;&gt;Answer -->
<g id="edge10" class="edge">
<title>LLM&#45;&gt;Answer</title>
<path fill="none" stroke="black" d="M257,-72.83C257,-64.89 257,-55.41 257,-46.63"/>
<polygon fill="black" stroke="black" points="260.5,-46.42 257,-36.42 253.5,-46.42 260.5,-46.42"/>
</g>
</g>
</svg>
